<svg xmlns="http://www.w3.org/2000/svg" xmlns:xlink="http://www.w3.org/1999/xlink" width="2000" zoomAndPan="magnify" viewBox="0 0 1500 1499.999933" height="2000" preserveAspectRatio="xMidYMid meet" version="1.0"><defs><clipPath id="e2125a1a31"><path d="M 245 167.488281 L 1255 167.488281 L 1255 1332.238281 L 245 1332.238281 Z M 245 167.488281 " clip-rule="nonzero"/></clipPath></defs><rect x="-150" width="1800" fill="#ffffff" y="-149.999993" height="1799.99992" fill-opacity="1"/><rect x="-150" width="1800" fill="#00bf63" y="-149.999993" height="1799.99992" fill-opacity="1"/><g clip-path="url(#e2125a1a31)"><path fill="#ffffff" d="M 1254.484375 458.800781 L 1254.484375 835.144531 L 1251.828125 833.695312 L 1135.398438 766.300781 L 1135.398438 527.644531 L 750.117188 305.171875 L 424.257812 493.101562 L 527.644531 552.765625 L 750.117188 424.257812 L 1093.125 622.574219 L 645.28125 872.101562 L 748.910156 936.113281 L 954.472656 799.394531 L 1044.332031 851.085938 L 1115.347656 892.152344 L 1234.433594 960.996094 L 1251.828125 970.898438 L 1251.828125 1042.882812 L 750.117188 1332.507812 L 245.507812 1041.191406 L 245.507812 664.847656 L 364.59375 733.691406 L 364.59375 972.589844 L 750.117188 1195.0625 L 1075.734375 1006.890625 L 959.0625 939.496094 L 751.082031 1077.664062 L 410.007812 866.789062 L 851.570312 620.644531 L 750.117188 561.945312 L 527.644531 690.453125 L 476.433594 660.984375 L 245.507812 527.644531 L 245.507812 458.800781 L 750.117188 167.488281 Z M 1254.484375 458.800781 " fill-opacity="1" fill-rule="nonzero"/></g></svg>